<?xml version="1.0" standalone="no"?>
<!DOCTYPE svg PUBLIC "-//W3C//DTD SVG 20010904//EN"
 "http://www.w3.org/TR/2001/REC-SVG-20010904/DTD/svg10.dtd">
<svg version="1.0" xmlns="http://www.w3.org/2000/svg"
 width="800.000000pt" height="766.000000pt" viewBox="0 0 800.000000 766.000000"
 preserveAspectRatio="xMidYMid meet">
<metadata>
Created by potrace 1.16, written by Peter Selinger 2001-2019
</metadata>
<g transform="translate(0.000000,766.000000) scale(0.100000,-0.100000)"
fill="currentColor" stroke="none">
<path d="M2480 7640 c0 -18 -7 -20 -80 -20 l-80 0 0 -45 0 -45 -130 0 -130 0
0 -40 0 -40 -85 0 -85 0 0 -40 0 -40 -80 0 -80 0 0 -45 0 -45 -45 0 -45 0 0
-40 0 -40 -85 0 -85 0 0 -45 0 -45 -40 0 -40 0 0 -40 0 -40 -40 0 -40 0 0 -45
0 -45 -85 0 -85 0 0 -40 0 -40 -45 0 -45 0 0 -40 0 -40 -40 0 -40 0 0 -45 0
-45 -45 0 -45 0 0 -85 0 -85 -80 0 -80 0 0 -80 0 -80 -45 0 -45 0 0 -45 0 -45
-40 0 -40 0 0 -85 0 -85 -45 0 -45 0 0 -40 0 -40 -40 0 -40 0 0 -45 0 -45 -45
0 -45 0 0 -125 0 -125 -40 0 -40 0 0 -85 0 -85 -40 0 -40 0 0 -125 0 -125 -45
0 -45 0 0 -85 c0 -78 -2 -85 -20 -85 -20 0 -20 -7 -20 -1260 0 -1253 0 -1260
20 -1260 18 0 20 -7 20 -85 l0 -85 45 0 45 0 0 -170 0 -170 40 0 40 0 0 -40 0
-40 40 0 40 0 0 -125 0 -125 45 0 45 0 0 -45 0 -45 40 0 40 0 0 -40 0 -40 45
0 45 0 0 -85 0 -85 40 0 40 0 0 -45 0 -45 45 0 45 0 0 -80 0 -80 80 0 80 0 0
-85 0 -85 45 0 45 0 0 -45 0 -45 40 0 40 0 0 -40 0 -40 45 0 45 0 0 -40 0 -40
85 0 85 0 0 -45 0 -45 40 0 40 0 0 -40 0 -40 40 0 40 0 0 -45 0 -45 85 0 85 0
0 -40 0 -40 45 0 45 0 0 -45 0 -45 80 0 80 0 0 -40 0 -40 85 0 85 0 0 -40 0
-40 85 0 85 0 0 -45 0 -45 125 0 c118 0 125 -1 125 -20 0 -20 7 -20 1390 -20
1383 0 1390 0 1390 20 0 19 7 20 130 20 l130 0 0 45 0 45 80 0 80 0 0 40 0 40
85 0 85 0 0 40 0 40 45 0 45 0 0 45 0 45 85 0 85 0 0 40 0 40 80 0 80 0 0 45
0 45 45 0 45 0 0 40 0 40 40 0 40 0 0 45 0 45 45 0 45 0 0 40 0 40 80 0 80 0
0 85 0 85 85 0 85 0 0 85 0 85 45 0 45 0 0 40 0 40 40 0 40 0 0 40 0 40 45 0
45 0 0 45 0 45 40 0 40 0 0 40 0 40 40 0 40 0 0 130 0 130 45 0 45 0 0 40 0
40 40 0 40 0 0 125 0 125 45 0 45 0 0 45 0 45 40 0 40 0 0 165 0 165 45 0 45
0 0 85 0 85 40 0 40 0 0 125 0 125 40 0 40 0 0 930 0 930 -40 0 -40 0 0 125 0
125 -40 0 -40 0 0 85 0 85 -45 0 -45 0 0 165 0 165 -40 0 -40 0 0 45 0 45 -45
0 -45 0 0 125 0 125 -40 0 -40 0 0 40 0 40 -45 0 -45 0 0 85 0 85 -40 0 -40 0
0 45 0 45 -40 0 -40 0 0 40 0 40 -45 0 -45 0 0 85 0 85 -40 0 -40 0 0 40 0 40
-45 0 -45 0 0 45 0 45 -40 0 -40 0 0 40 0 40 -45 0 -45 0 0 85 0 85 -80 0 -80
0 0 40 0 40 -45 0 -45 0 0 45 0 45 -40 0 -40 0 0 40 0 40 -45 0 -45 0 0 45 0
45 -80 0 -80 0 0 40 0 40 -85 0 -85 0 0 45 0 45 -85 0 -85 0 0 40 0 40 -45 0
-45 0 0 40 0 40 -125 0 -125 0 0 45 0 45 -125 0 c-118 0 -125 1 -125 20 0 20
-7 20 -1350 20 -1343 0 -1350 0 -1350 -20z m1940 -355 l0 -85 -40 0 -40 0 0
85 0 85 40 0 40 0 0 -85z m-2190 -1645 l0 -40 85 0 85 0 0 -45 0 -45 85 0 85
0 0 -40 0 -40 40 0 40 0 0 -40 0 -40 45 0 45 0 0 -45 0 -45 40 0 40 0 0 -40 0
-40 45 0 45 0 0 -45 0 -45 40 0 40 0 0 -40 0 -40 40 0 40 0 0 -125 0 -125 45
0 45 0 0 -210 0 -210 -45 0 -45 0 0 -45 0 -45 -40 0 -40 0 0 -40 0 -40 -85 0
-85 0 0 -45 0 -45 -250 0 -250 0 0 45 0 45 -170 0 -170 0 0 40 0 40 -295 0
-295 0 0 -40 0 -40 -85 0 -85 0 0 -45 0 -45 -40 0 -40 0 0 -40 0 -40 -45 0
-45 0 0 85 0 85 45 0 45 0 0 210 0 210 40 0 40 0 0 85 0 85 45 0 45 0 0 125 0
125 40 0 40 0 0 85 0 85 40 0 40 0 0 40 0 40 45 0 45 0 0 85 0 85 40 0 40 0 0
40 0 40 45 0 45 0 0 45 0 45 40 0 40 0 0 40 0 40 210 0 210 0 0 -40z m3620
-1260 l0 -40 45 0 45 0 0 -85 0 -85 40 0 40 0 0 -295 0 -295 -40 0 -40 0 0
-130 0 -130 -45 0 -45 0 0 -125 0 -125 -40 0 -40 0 0 -85 0 -85 -45 0 -45 0 0
-40 0 -40 -40 0 -40 0 0 -85 0 -85 -40 0 -40 0 0 -40 0 -40 -45 0 -45 0 0 -85
0 -85 -85 0 -85 0 0 -45 0 -45 -40 0 -40 0 0 -40 0 -40 -45 0 -45 0 0 85 0 85
-80 0 -80 0 0 170 0 170 -85 0 -85 0 0 125 0 125 -45 0 -45 0 0 40 0 40 -40 0
-40 0 0 125 0 125 -40 0 -40 0 0 45 0 45 375 0 375 0 0 380 0 380 130 0 130 0
0 85 0 85 125 0 125 0 0 40 0 40 40 0 40 0 0 -40z m-1770 -1015 l0 -45 -40 0
-40 0 0 -210 0 -210 40 0 40 0 0 -80 0 -80 45 0 45 0 0 -85 0 -85 40 0 40 0 0
-85 0 -85 45 0 45 0 0 -85 0 -85 40 0 40 0 0 -40 0 -40 45 0 45 0 0 -85 0 -85
40 0 40 0 0 -45 0 -45 -85 0 -85 0 0 -40 0 -40 -125 0 -125 0 0 -40 0 -40
-340 0 -340 0 0 40 0 40 -125 0 -125 0 0 40 0 40 -125 0 -125 0 0 45 0 45 -85
0 -85 0 0 40 0 40 -40 0 -40 0 0 45 0 45 -85 0 -85 0 0 40 0 40 -210 0 -210 0
0 -40 0 -40 -45 0 -45 0 0 -85 0 -85 -165 0 -165 0 0 85 0 85 -45 0 -45 0 0
40 0 40 -40 0 -40 0 0 85 0 85 -45 0 -45 0 0 40 0 40 -40 0 -40 0 0 85 0 85
-40 0 -40 0 0 85 0 85 -45 0 -45 0 0 85 0 85 -40 0 -40 0 0 210 0 210 1470 0
1470 0 0 -45z m-2020 -2355 l0 -130 -125 0 -125 0 0 45 0 45 40 0 40 0 0 40 0
40 45 0 45 0 0 45 0 45 40 0 40 0 0 -130z m4050 85 l0 -45 -45 0 -45 0 0 -40
0 -40 -40 0 -40 0 0 -45 0 -45 -45 0 -45 0 0 130 0 130 130 0 130 0 0 -45z"/>
</g>
</svg>
