<?xml version="1.0" standalone="no"?>
<!DOCTYPE svg PUBLIC "-//W3C//DTD SVG 20010904//EN"
 "http://www.w3.org/TR/2001/REC-SVG-20010904/DTD/svg10.dtd">
<svg version="1.0" xmlns="http://www.w3.org/2000/svg"
 width="753.000000pt" height="800.000000pt" viewBox="0 0 753.000000 800.000000"
 preserveAspectRatio="xMidYMid meet">
<metadata>
Created by potrace 1.16, written by Peter Selinger 2001-2019
</metadata>
<g transform="translate(0.000000,800.000000) scale(0.100000,-0.100000)"
fill="currentColor" stroke="none">
<path d="M0 4000 l0 -4000 3765 0 3765 0 0 4000 0 4000 -3765 0 -3765 0 0
-4000z m4788 3531 c44 -16 103 -45 133 -64 70 -45 161 -138 203 -208 41 -68
83 -194 91 -274 10 -100 12 -104 58 -124 53 -24 165 -137 212 -216 60 -101 87
-202 87 -330 1 -94 -3 -121 -27 -190 -38 -110 -86 -193 -148 -255 -44 -45 -70
-65 -141 -112 -6 -4 -42 -22 -81 -40 l-70 -33 -175 0 -175 0 -65 32 c-100 49
-112 50 -183 15 -96 -47 -179 -65 -292 -65 -201 0 -355 71 -493 227 -189 213
-202 559 -31 792 40 55 122 132 183 172 43 29 56 55 56 115 0 85 46 223 102
306 95 142 267 255 428 281 99 16 239 3 328 -29z m-3213 -120 c66 -17 139 -39
163 -48 41 -15 46 -15 105 5 34 12 109 34 167 49 103 28 109 28 390 27 226 0
305 -4 379 -17 52 -10 101 -23 108 -29 20 -16 19 -1516 -1 -1524 -8 -3 -35 2
-61 10 -31 11 -118 20 -255 28 -239 13 -448 1 -565 -31 -200 -55 -224 -59
-274 -45 -73 22 -211 55 -265 65 -157 27 -612 17 -726 -17 -30 -9 -56 -12 -61
-7 -9 9 -13 1508 -4 1523 6 9 107 28 219 40 39 5 181 7 316 6 241 -2 247 -3
365 -35z m4430 -1965 c15 -22 16 -108 12 -828 -3 -770 -4 -807 -24 -893 -12
-49 -26 -126 -33 -170 -6 -44 -20 -107 -30 -140 -10 -33 -24 -87 -30 -120 -7
-33 -19 -76 -27 -95 -8 -19 -23 -64 -33 -100 -29 -103 -60 -191 -86 -248 -13
-29 -24 -57 -24 -63 0 -15 -51 -134 -138 -319 -16 -36 -39 -83 -49 -105 -31
-64 -124 -238 -142 -265 -9 -14 -24 -41 -34 -60 -15 -30 -60 -104 -154 -251
-29 -46 -62 -92 -98 -139 -16 -22 -46 -60 -65 -86 -163 -219 -465 -519 -713
-709 -147 -113 -404 -284 -502 -336 -22 -11 -67 -36 -100 -54 -53 -31 -148
-78 -300 -150 -27 -13 -81 -37 -120 -53 -38 -16 -95 -40 -125 -52 -77 -33
-141 -37 -188 -13 -20 11 -50 23 -67 27 -111 27 -494 218 -725 361 -30 19 -72
43 -92 54 -20 12 -40 25 -43 31 -3 6 -23 19 -43 31 -20 11 -53 32 -73 47 -20
15 -72 54 -115 86 -44 33 -83 64 -89 70 -5 6 -26 23 -46 38 -116 87 -480 452
-547 550 -9 13 -21 28 -27 33 -6 6 -19 21 -28 35 -9 14 -35 50 -57 80 -126
171 -190 274 -336 537 -77 140 -194 375 -194 389 0 5 -11 29 -24 54 -13 25
-29 63 -36 85 -7 22 -17 45 -22 51 -9 12 -37 88 -78 214 -12 36 -30 88 -41
116 -11 29 -28 85 -39 125 -10 41 -25 99 -34 129 -37 138 -67 285 -81 400 -8
69 -20 152 -25 185 -6 36 -10 352 -10 778 l0 718 25 24 24 25 2905 0 2906 0
15 -24z"/>
<path d="M4461 7345 c-153 -43 -287 -181 -314 -323 -10 -49 18 -72 87 -72 79
0 188 -26 259 -60 34 -17 69 -30 78 -30 9 0 42 13 75 29 74 36 183 61 269 61
60 0 66 2 77 24 8 19 8 37 -1 73 -30 119 -150 244 -277 288 -68 24 -186 29
-253 10z"/>
<path d="M4204 6727 c-7 -19 10 -58 42 -96 34 -40 71 -56 91 -39 22 18 54 85
47 101 -14 38 -167 67 -180 34z"/>
<path d="M4800 6721 c-31 -16 -35 -23 -34 -55 1 -40 36 -86 64 -86 10 0 38 23
64 50 37 39 47 57 44 78 -3 25 -7 27 -53 30 -35 2 -61 -3 -85 -17z"/>
<path d="M5165 6644 c-9 -10 -28 -36 -43 -58 -42 -68 -94 -125 -152 -169 -103
-77 -110 -86 -110 -137 0 -65 -34 -193 -70 -262 -17 -31 -30 -66 -30 -76 0
-45 145 -75 252 -53 88 19 168 64 232 131 68 71 102 140 117 241 11 66 9 83
-9 157 -24 93 -83 189 -138 223 -30 18 -33 19 -49 3z"/>
<path d="M3930 6636 c-32 -18 -83 -88 -118 -163 -24 -52 -27 -69 -27 -168 1
-102 3 -115 32 -176 43 -92 124 -171 222 -218 72 -34 82 -36 176 -36 83 0 106
4 135 21 42 24 48 53 22 97 -39 63 -72 161 -82 246 -16 128 -16 129 -50 136
-54 12 -204 168 -242 250 -13 28 -31 31 -68 11z"/>
<path d="M4509 6257 c-25 -54 38 -170 80 -148 26 14 51 72 51 119 0 44 -12 52
-83 52 -30 0 -40 -5 -48 -23z"/>
<path d="M1165 7224 c-90 -10 -208 -34 -221 -45 -8 -6 -14 -18 -14 -25 0 -18
43 -46 61 -40 8 3 73 10 144 15 151 11 276 0 343 -29 56 -25 79 -25 92 -1 25
47 1 67 -110 96 -95 25 -219 37 -295 29z"/>
<path d="M2235 7224 c-11 -3 -65 -16 -120 -30 -120 -29 -145 -52 -111 -100 14
-19 15 -19 78 3 94 33 201 43 347 32 69 -5 134 -12 144 -15 21 -7 67 21 67 40
0 23 -24 35 -105 51 -83 16 -267 27 -300 19z"/>
<path d="M1078 6971 c-114 -17 -148 -30 -148 -57 0 -29 42 -43 100 -33 30 6
123 11 205 11 134 2 157 -1 210 -21 84 -32 109 -35 123 -18 16 19 5 64 -18 77
-33 18 -251 60 -303 59 -29 -1 -105 -9 -169 -18z"/>
<path d="M2136 6960 c-120 -28 -146 -43 -146 -81 0 -9 7 -22 15 -29 16 -13 49
-7 135 26 36 14 75 17 200 16 85 0 178 -5 205 -11 53 -10 95 4 95 33 0 27 -34
40 -158 57 -166 24 -204 23 -346 -11z"/>
<path d="M1047 6726 c-97 -13 -126 -30 -108 -64 15 -28 31 -32 87 -20 27 6
121 11 209 12 142 1 165 -1 205 -20 64 -29 97 -36 120 -24 38 20 17 72 -36 90
-113 38 -305 49 -477 26z"/>
<path d="M2128 6719 c-106 -22 -126 -32 -134 -66 -13 -51 45 -64 117 -27 70
36 333 44 442 13 31 -8 43 -7 63 6 32 21 31 50 -3 63 -86 34 -352 40 -485 11z"/>
<path d="M1065 6490 c-105 -12 -122 -17 -129 -36 -4 -9 1 -28 10 -41 14 -22
20 -24 52 -18 180 34 322 34 432 -1 95 -29 144 -29 148 1 5 33 -41 67 -110 82
-78 18 -297 25 -403 13z"/>
<path d="M2133 6481 c-93 -19 -138 -46 -138 -82 0 -21 5 -24 37 -27 23 -2 70
8 115 24 74 25 85 26 218 21 77 -2 162 -11 189 -18 46 -13 49 -13 67 10 42 52
22 65 -125 80 -150 15 -266 13 -363 -8z"/>
<path d="M1760 5120 c-25 -5 -69 -9 -98 -9 -41 -1 -54 -5 -58 -18 -19 -64 -25
-68 -117 -75 -86 -6 -165 -35 -206 -73 -19 -19 -7 -59 30 -93 35 -33 32 -46
-22 -87 -22 -16 -48 -47 -60 -68 -11 -21 -36 -56 -56 -77 -33 -38 -35 -42 -23
-71 7 -17 25 -38 39 -47 38 -23 51 -42 51 -74 0 -22 -8 -33 -35 -49 -20 -12
-40 -29 -45 -38 -14 -28 11 -64 58 -81 56 -21 65 -32 65 -80 0 -51 -29 -94
-67 -98 -22 -3 -40 8 -88 55 -33 32 -68 66 -77 77 -9 10 -26 29 -37 43 -12 13
-25 40 -29 60 -4 21 -15 54 -25 74 -11 20 -26 68 -34 107 -8 39 -21 83 -29 99
-8 15 -20 53 -26 84 -13 63 -43 98 -103 123 -20 9 -57 29 -81 46 -70 47 -88
40 -62 -22 7 -18 -23 -53 -74 -88 -15 -10 -24 -29 -28 -60 -3 -25 -15 -58 -25
-73 -21 -29 -21 -36 0 -167 12 -83 35 -120 122 -198 52 -48 81 -82 85 -101 3
-17 14 -40 24 -53 10 -13 26 -38 35 -56 9 -18 26 -42 37 -53 10 -10 19 -25 19
-33 0 -7 14 -30 30 -51 17 -21 30 -44 30 -51 0 -7 11 -25 24 -41 63 -75 110
-288 104 -478 -1 -45 2 -86 6 -93 4 -7 29 -12 56 -12 68 0 80 -19 80 -132 0
-47 -4 -98 -9 -112 -7 -18 -6 -28 4 -36 24 -20 58 -4 119 57 79 79 103 93 156
93 76 0 174 20 202 40 15 11 32 20 38 20 6 0 33 -20 59 -45 26 -25 51 -45 55
-45 4 0 23 16 41 36 26 27 40 35 61 32 27 -3 28 -6 41 -91 14 -97 45 -160 135
-270 44 -53 48 -63 48 -110 0 -30 -9 -70 -20 -95 -10 -23 -24 -78 -30 -122 -6
-44 -19 -99 -30 -122 -10 -24 -24 -72 -30 -107 -6 -36 -20 -81 -31 -100 -10
-20 -24 -54 -29 -76 -6 -22 -24 -56 -41 -75 l-30 -35 -173 -5 c-149 -4 -177
-8 -194 -23 -11 -10 -42 -26 -68 -37 -27 -10 -58 -30 -69 -44 l-20 -27 33 -25
c25 -20 32 -33 32 -59 0 -27 6 -37 34 -53 24 -14 36 -30 43 -58 8 -35 13 -40
68 -60 33 -13 83 -23 110 -23 75 -1 237 24 272 42 24 13 131 37 165 37 3 0 29
18 57 40 42 33 53 49 66 95 9 30 20 57 25 60 5 3 16 28 25 56 17 50 30 74 91
167 17 26 34 57 38 69 7 21 108 130 156 168 59 46 190 128 243 151 39 17 46
37 22 64 -25 28 -30 76 -9 95 39 35 111 74 149 80 73 14 77 19 73 92 l-3 66
55 33 c63 38 126 54 209 54 32 0 60 2 63 5 3 3 1 22 -5 43 -14 54 -3 90 31 99
15 4 34 6 42 4 20 -4 80 -62 80 -77 0 -6 16 -32 35 -57 19 -25 35 -49 35 -52
0 -3 43 -56 95 -118 53 -62 98 -123 102 -136 6 -26 -30 -151 -57 -191 -9 -14
-22 -45 -29 -70 -7 -25 -19 -52 -26 -60 -7 -8 -20 -38 -29 -66 -9 -28 -28 -62
-42 -75 -24 -23 -34 -24 -187 -30 l-162 -5 -70 -39 c-39 -21 -82 -47 -97 -57
-36 -25 -37 -55 -3 -64 31 -8 47 -36 39 -68 -5 -20 0 -27 25 -41 17 -8 37 -30
45 -49 8 -20 24 -37 38 -41 12 -4 43 -16 66 -27 41 -19 51 -20 143 -9 57 6
116 19 137 30 20 10 69 24 109 30 46 7 86 20 109 36 20 14 41 25 46 25 5 0 17
20 28 44 10 24 23 47 28 50 6 3 16 23 23 44 30 96 125 207 224 263 67 38 78
56 70 113 -7 43 -6 44 40 79 25 20 59 38 75 42 16 3 34 13 40 20 10 12 -2 23
-64 62 -75 47 -76 49 -98 115 l-21 66 22 95 c24 100 29 107 82 107 22 0 34 -8
48 -31 17 -27 163 -193 299 -338 46 -50 52 -61 52 -99 0 -23 -9 -60 -20 -82
-11 -22 -25 -63 -31 -92 -6 -29 -19 -67 -29 -84 -10 -17 -25 -56 -34 -86 -9
-31 -22 -60 -29 -67 -8 -6 -20 -29 -27 -52 -20 -59 -41 -66 -222 -72 -133 -4
-161 -8 -185 -25 -15 -10 -56 -37 -90 -58 -35 -21 -63 -46 -63 -55 0 -8 16
-23 35 -32 34 -16 45 -39 25 -52 -6 -3 -10 -14 -10 -25 0 -19 19 -30 50 -30
26 0 50 -27 50 -55 0 -30 28 -48 94 -64 62 -15 224 2 278 30 21 10 68 23 105
29 41 7 84 22 110 38 47 30 97 99 107 149 4 17 14 37 22 44 8 6 22 37 30 68 9
31 25 66 35 79 10 13 21 37 24 55 13 57 72 151 115 182 23 17 54 40 68 51 15
12 45 29 66 38 38 16 38 16 32 60 -9 59 0 91 32 107 41 21 106 63 114 73 13
19 -5 36 -55 51 -29 9 -72 31 -97 50 -25 19 -61 46 -82 59 -20 14 -56 50 -81
80 -42 51 -46 62 -67 173 -22 114 -28 212 -44 770 -2 77 7 82 160 94 76 6 151
18 183 30 30 10 82 24 114 30 33 6 69 17 81 24 12 8 41 21 64 29 47 17 77 38
152 104 40 35 55 59 79 124 38 99 38 125 2 234 -36 105 -67 140 -171 192 l-75
37 -155 0 c-138 -1 -160 -3 -204 -23 -26 -12 -78 -27 -115 -33 -36 -6 -79 -19
-96 -29 -16 -10 -57 -23 -90 -30 -33 -7 -76 -20 -96 -30 -19 -10 -73 -24 -120
-30 -46 -6 -120 -21 -164 -33 -73 -20 -105 -21 -386 -22 l-305 0 -40 26 c-22
14 -49 29 -61 33 -23 7 -83 101 -83 130 0 29 48 112 80 139 17 15 47 30 68 34
20 4 159 8 307 8 l270 0 50 -32 c50 -32 135 -66 210 -85 54 -13 393 -5 422 10
17 9 22 21 21 46 -2 50 7 56 80 56 37 1 85 8 107 17 88 34 210 73 231 73 35 0
54 11 54 30 0 35 -65 60 -175 69 -69 6 -70 6 -81 41 l-12 35 -98 -3 c-74 -2
-133 4 -233 23 -73 14 -156 25 -183 25 -66 0 -204 -36 -248 -64 -19 -12 -55
-35 -80 -51 l-45 -29 -335 0 -335 -1 -69 -35 c-63 -33 -136 -97 -136 -120 0
-6 -10 -25 -22 -41 -21 -28 -23 -42 -23 -142 0 -107 1 -114 30 -161 40 -64
102 -123 145 -137 19 -6 49 -20 66 -30 34 -20 141 -35 329 -45 154 -8 542 19
605 41 25 9 87 23 138 31 51 8 110 23 130 33 20 10 57 22 82 26 25 4 70 17
100 30 57 25 209 54 315 62 116 8 205 -59 205 -156 0 -32 -6 -50 -22 -67 -13
-12 -27 -28 -33 -34 -26 -28 -107 -71 -153 -80 -27 -5 -76 -18 -109 -29 -97
-33 -367 -47 -591 -31 -150 11 -246 11 -535 0 -414 -15 -731 -4 -840 30 -34
11 -91 23 -127 26 -58 6 -69 11 -98 43 -18 20 -35 46 -39 58 -8 34 19 68 66
82 45 13 76 50 67 78 -3 10 -23 27 -43 38 -32 17 -38 26 -41 56 -3 34 1 40 40
66 58 39 70 74 37 110 -14 16 -40 51 -58 78 -19 28 -54 69 -80 91 l-46 42 43
46 c23 25 42 49 42 53 -1 18 -18 32 -80 63 -52 26 -80 33 -148 38 -86 5 -112
17 -112 51 0 10 -6 23 -12 28 -17 14 -162 28 -273 27 -79 0 -96 -4 -135 -27
-25 -14 -59 -40 -75 -57 -36 -38 -65 -38 -93 -1 -11 16 -42 41 -69 56 -40 24
-62 28 -133 31 -47 1 -105 -1 -130 -6z m296 -330 c24 -22 53 -40 65 -40 12 0
41 18 65 40 49 45 61 48 95 21 13 -10 59 -33 103 -50 69 -28 85 -31 141 -25
59 6 65 5 89 -19 35 -35 33 -62 -9 -126 -41 -62 -42 -73 -10 -126 14 -22 25
-50 25 -62 0 -14 -34 -63 -88 -125 -121 -142 -123 -147 -131 -245 -8 -101 -20
-116 -88 -117 -82 -1 -123 12 -134 41 -14 38 -3 58 49 92 85 54 91 61 98 98 4
23 0 73 -11 130 l-18 93 23 25 c13 13 38 29 56 35 23 8 38 23 53 53 31 62 16
72 -101 71 -81 -2 -94 -4 -109 -23 -24 -29 -33 -115 -26 -229 9 -131 8 -132
-107 -132 -79 0 -95 -3 -110 -19 -23 -25 -13 -57 22 -75 33 -17 72 -68 72 -95
0 -31 -43 -57 -106 -65 -47 -5 -62 -3 -89 14 -27 17 -35 29 -39 63 -4 23 -5
49 -4 57 7 70 -1 88 -91 192 -123 145 -124 147 -93 219 28 66 26 89 -18 144
-40 50 -40 87 1 116 27 19 39 21 93 15 66 -7 111 7 226 69 25 13 49 24 54 24
5 1 28 -17 52 -39z m1664 30 c11 -7 1 -10 -35 -10 -36 0 -46 3 -35 10 8 5 24
10 35 10 11 0 27 -5 35 -10z m-120 -54 c0 -8 -8 -17 -18 -20 -10 -4 -26 -22
-35 -41 -19 -40 -37 -46 -37 -12 0 29 26 66 54 77 30 12 36 12 36 -4z m-2812
-73 c5 -10 12 -42 16 -72 4 -30 16 -72 27 -93 11 -22 25 -68 30 -101 6 -34 18
-75 29 -92 10 -16 23 -49 29 -72 17 -63 171 -215 308 -304 18 -11 37 -35 43
-55 6 -19 29 -67 50 -107 86 -158 112 -221 117 -282 3 -33 10 -66 16 -72 15
-20 86 -15 123 7 18 12 35 17 37 13 4 -7 11 -201 8 -228 0 -6 -25 -23 -55 -38
-47 -24 -65 -28 -128 -25 -64 3 -74 6 -84 25 -6 13 -18 31 -26 40 -9 10 -25
36 -37 58 -12 22 -37 65 -56 95 -19 30 -47 77 -62 104 -15 26 -40 69 -55 95
-15 25 -37 66 -48 91 -12 25 -30 54 -40 65 -10 11 -21 31 -25 45 -4 14 -18 38
-31 53 -13 16 -24 34 -24 41 0 7 -13 30 -30 51 -16 21 -30 44 -30 51 0 8 -13
28 -30 46 -16 17 -30 38 -30 46 0 8 -11 28 -26 44 -14 17 -27 43 -30 57 -6 29
-52 82 -126 146 -61 53 -68 77 -28 105 40 28 41 75 3 120 -29 35 -21 50 28 50
40 0 56 24 41 62 -15 41 -9 48 43 48 32 0 47 -5 53 -17z m2735 -233 c15 -12
34 -34 42 -50 9 -17 28 -33 50 -40 40 -13 42 -36 2 -33 -29 2 -107 72 -107 97
0 9 -10 26 -22 38 -28 28 -37 122 -17 159 13 22 14 17 19 -63 5 -80 7 -88 33
-108z m1943 58 c11 -9 39 -21 64 -28 30 -8 57 -25 81 -50 30 -32 38 -50 49
-113 17 -104 -1 -188 -56 -246 -22 -22 -44 -41 -50 -41 -6 0 -19 -9 -29 -20
-9 -10 -40 -27 -68 -36 -28 -9 -64 -25 -81 -34 -17 -10 -58 -21 -91 -25 -33
-4 -87 -16 -120 -26 -33 -11 -114 -23 -181 -29 -66 -5 -132 -13 -145 -19 -56
-21 -70 -70 -38 -138 22 -46 23 -62 29 -408 6 -314 9 -365 24 -400 10 -22 24
-61 31 -87 19 -68 101 -168 168 -204 36 -19 37 -68 2 -115 -14 -19 -32 -50
-41 -69 -9 -19 -25 -47 -36 -62 -10 -15 -24 -42 -30 -60 -6 -18 -20 -45 -30
-60 -10 -15 -24 -42 -30 -60 -6 -18 -19 -42 -28 -53 -10 -11 -24 -40 -30 -65
-7 -24 -20 -55 -31 -68 -10 -13 -21 -40 -25 -61 -3 -20 -17 -52 -29 -71 -13
-19 -28 -53 -34 -75 -9 -36 -48 -83 -102 -123 -9 -7 -51 -17 -94 -22 -44 -6
-91 -18 -109 -29 -18 -11 -52 -21 -76 -23 -41 -3 -44 -1 -64 37 -17 32 -27 41
-53 43 -26 3 -34 9 -43 38 -7 19 -20 40 -31 47 -26 16 -24 30 9 54 24 17 47
21 185 25 l159 6 34 33 c19 18 39 50 44 70 6 20 18 44 29 53 10 10 22 34 26
54 4 20 17 55 30 77 13 22 26 58 30 80 3 22 18 64 32 92 21 44 26 69 27 142
l1 90 -35 34 c-19 19 -60 62 -90 95 -30 34 -81 90 -112 124 -32 35 -69 77 -83
93 -14 17 -39 45 -55 63 -16 18 -36 46 -45 62 -8 16 -21 33 -28 37 -7 4 -21
21 -32 37 -34 49 -69 101 -92 137 -50 79 -72 106 -137 175 -75 80 -143 118
-170 95 -27 -23 -30 -70 -7 -102 12 -16 20 -33 17 -38 -7 -11 -140 -58 -204
-70 -29 -6 -69 -18 -90 -27 -20 -8 -68 -22 -105 -30 -37 -7 -81 -21 -97 -29
-16 -8 -61 -22 -100 -30 -39 -8 -83 -21 -98 -29 -15 -8 -56 -20 -92 -26 -36
-7 -77 -19 -92 -26 -15 -8 -66 -23 -113 -34 -151 -35 -171 -56 -154 -157 11
-70 5 -104 -29 -163 -15 -25 -33 -57 -42 -72 -52 -90 -75 -129 -105 -178 -19
-30 -46 -75 -60 -100 -14 -25 -39 -65 -55 -90 -17 -25 -38 -58 -48 -73 -9 -16
-29 -45 -44 -64 -16 -20 -28 -41 -28 -48 0 -7 -13 -29 -30 -50 -16 -21 -30
-43 -30 -50 0 -6 -9 -20 -20 -30 -11 -10 -27 -41 -35 -68 -8 -28 -22 -58 -31
-68 -9 -10 -20 -40 -25 -66 -5 -26 -16 -52 -25 -58 -9 -5 -29 -20 -44 -33 -21
-16 -51 -25 -110 -33 -46 -5 -100 -19 -122 -30 -48 -24 -161 -37 -182 -20 -7
6 -16 24 -19 40 -4 18 -15 32 -27 36 -12 4 -26 19 -32 33 -7 15 -23 39 -37 54
-21 24 -23 31 -13 53 12 26 19 28 137 30 28 1 91 2 142 3 60 1 96 6 102 15 6
6 24 28 40 47 16 20 34 56 41 80 6 25 20 59 30 75 11 17 23 58 29 91 5 34 18
78 30 99 11 20 23 67 27 104 3 36 17 92 30 123 13 32 24 72 24 90 0 45 14 91
36 118 59 72 73 90 106 140 56 86 88 152 88 185 0 41 10 75 22 75 5 0 21 -13
35 -30 19 -24 33 -30 63 -30 37 0 38 1 79 83 47 93 61 156 61 268 0 44 2 79 4
79 2 0 20 -7 39 -15 20 -8 54 -15 76 -15 47 0 71 26 71 78 0 55 28 149 60 199
17 26 30 51 30 57 0 5 7 17 15 26 9 10 33 62 53 116 33 89 40 99 64 102 15 2
49 -6 75 -18 34 -15 82 -25 163 -31 63 -5 174 -17 245 -26 158 -21 345 -20
482 1 73 11 173 16 343 16 215 0 247 -2 297 -20 68 -24 99 -24 218 -5 50 9
151 22 226 29 85 9 154 22 185 34 27 11 62 23 78 27 43 9 149 76 184 116 77
88 71 198 -16 284 -101 100 -63 89 -331 95 -19 0 -3 16 24 23 11 3 61 5 111 4
70 -2 96 -6 110 -19z m-313 -43 c-3 -15 -40 -23 -110 -24 -61 -1 -86 14 -40
24 74 16 153 16 150 0z m-205 -57 c-6 -16 -41 -26 -96 -27 -50 -1 -54 20 -6
30 53 12 106 10 102 -3z m-200 -57 c22 -13 -11 -21 -91 -21 -44 0 -67 4 -61 9
16 17 131 26 152 12z m-310 -58 c18 -4 20 -8 10 -14 -16 -11 -299 -12 -325 -1
-30 12 272 27 315 15z m-538 -13 c-8 -5 -46 -10 -85 -10 -38 0 -77 5 -85 10
-10 7 17 10 85 10 68 0 95 -3 85 -10z m-1700 -456 c79 -16 91 -24 83 -55 -9
-33 -43 -42 -158 -43 -133 0 -170 13 -170 59 0 29 1 30 64 37 34 4 68 9 75 12
18 7 28 7 106 -10z m1913 -754 c72 -69 81 -94 47 -125 -11 -10 -25 -37 -30
-59 -6 -23 -20 -57 -30 -77 -30 -55 -27 -145 5 -189 26 -36 35 -103 14 -115
-12 -8 -99 -141 -99 -153 0 -12 -90 -185 -105 -202 -7 -8 -16 -27 -20 -42 -4
-14 -15 -34 -26 -43 -10 -10 -23 -34 -30 -54 -6 -20 -18 -43 -25 -51 -7 -9
-20 -32 -29 -53 -8 -20 -21 -37 -29 -37 -7 0 -25 -9 -40 -21 -17 -13 -56 -25
-114 -34 -48 -7 -105 -23 -127 -34 -65 -34 -125 -24 -125 20 0 10 -16 30 -35
45 -19 14 -35 33 -35 41 0 8 -12 25 -27 39 -23 21 -25 29 -17 52 l9 27 183 5
183 6 34 39 c31 35 55 89 55 121 0 6 9 19 20 29 10 9 24 41 30 70 6 29 20 61
30 70 11 10 22 34 26 54 3 20 17 55 30 78 31 54 33 127 4 157 -37 39 -85 95
-120 141 -19 25 -47 60 -62 77 -16 17 -28 36 -28 42 0 6 -13 23 -30 38 -19 16
-30 36 -30 52 0 30 -1 29 101 26 68 -2 78 0 92 20 12 17 13 27 4 50 -6 16 -8
33 -3 37 9 10 151 21 226 19 53 -2 58 -5 123 -66z"/>
<path d="M1838 4553 c-50 -13 -11 -94 61 -125 60 -26 101 -25 124 4 24 29 16
75 -19 106 -21 18 -36 22 -87 21 -34 -1 -69 -3 -79 -6z"/>
</g>
</svg>
