<svg xmlns="http://www.w3.org/2000/svg" viewBox="0 0 192 192" fill="currentColor">
<g transform="translate(0,192) scale(0.1,-0.1)">
<path d="M850 1514 c-106 -28 -197 -99 -253 -195 -22 -39 -297 -878 -297 -907
0 -8 33 -12 110 -12 l109 0 26 88 c15 48 41 137 60 197 18 61 66 220 105 355
40 135 79 253 88 263 13 15 35 17 162 17 121 0 150 -3 160 -15 7 -9 73 -215
146 -458 l132 -442 111 -3 c85 -2 111 0 111 10 0 7 -27 96 -59 198 -238 745
-224 707 -289 780 -102 115 -270 165 -422 124z"/>
<path d="M911 1016 c-70 -25 -113 -108 -90 -177 36 -107 166 -140 242 -61 72
76 49 189 -47 233 -47 21 -59 22 -105 5z"/>
</g>
</svg>
